<svg width="192" height="192" viewBox="0 0 192 192" fill="none" xmlns="http://www.w3.org/2000/svg">
<rect width="192" height="192" fill="#FFECA0"/>
<rect x="48" width="48" height="192" fill="#CEFFBC"/>
<rect x="96" width="48" height="192" fill="#FFA0A2"/>
<rect x="144" width="48" height="192" fill="#7EA0FD"/>
<mask id="path-5-outside-1_12_2" maskUnits="userSpaceOnUse" x="10" y="58" width="159" height="77" fill="black">
<rect fill="white" x="10" y="58" width="159" height="77"/>
<path d="M59.8593 111.95C59.4608 111.95 59.1004 112.186 58.9419 112.552L54.6655 122.415C54.6207 122.519 54.5587 122.614 54.4821 122.696L49.5 128.082C49.4449 128.142 49.3826 128.194 49.3147 128.239L45.2535 130.905C45.0905 131.012 44.8998 131.069 44.7048 131.069H39.0553H35.2704C34.9921 131.069 34.7264 130.953 34.5372 130.749L32.1476 128.172L30.2897 126.302C30.2492 126.261 30.2052 126.224 30.1583 126.191L25.1093 122.615C25.0685 122.586 25.0255 122.56 24.9808 122.538L20.5512 120.308C20.4792 120.272 20.4118 120.227 20.3506 120.175L16.6934 117.046C16.6348 116.996 16.5821 116.939 16.5366 116.877L13.9941 113.404C13.9441 113.336 13.903 113.262 13.8717 113.183L12.0707 108.651C12.024 108.534 12 108.409 12 108.282V108.096C12 107.145 13.2029 106.731 13.7882 107.481L16.0317 110.355C16.1553 110.513 16.3237 110.631 16.515 110.692L20.4428 111.95L24.91 113.261C25.0015 113.288 25.0964 113.302 25.1917 113.302H28.644C29.3792 113.302 29.8631 112.535 29.5466 111.871L27.9262 108.474L27.704 108.11C27.2319 107.338 27.9464 106.386 28.8196 106.624L33.0673 107.779C33.3372 107.852 33.6255 107.809 33.8622 107.661L36.3161 106.117C36.476 106.016 36.6042 105.872 36.6857 105.702L38.9574 100.953C39.0219 100.819 39.0553 100.671 39.0553 100.522V96.1138V92.7812C39.0553 92.5627 38.9838 92.3502 38.8516 92.1763L36.7646 89.4296C36.6324 89.2556 36.5609 89.0431 36.5609 88.8246V86.5653C36.5609 85.7342 37.5159 85.2658 38.1731 85.7746L38.785 86.2484C38.9603 86.3841 39.1756 86.4577 39.3972 86.4577H40.9576C41.2146 86.4577 41.4617 86.3587 41.6477 86.1814L44.8527 83.1254C44.9523 83.0305 45.0312 82.916 45.0845 82.7892L47.1144 77.9603L49.3391 73.8553C49.3907 73.7602 49.4573 73.674 49.5365 73.6002L54.5978 68.8836L59.1365 64.6962C59.1807 64.6554 59.2285 64.6187 59.2793 64.5865L64.2382 61.4441C64.3345 61.3831 64.4406 61.3389 64.5518 61.3137L70.2227 60.0249C70.2954 60.0083 70.3697 60 70.4443 60H76.4723H81.8736C81.9818 60 82.0892 60.0175 82.1917 60.0519L85.8939 61.294C86.008 61.3322 86.1142 61.3908 86.2075 61.4668L89.8201 64.4102C89.9985 64.5555 90.2216 64.6349 90.4517 64.6349H94.7011H100.34C100.418 64.6349 100.496 64.6258 100.572 64.6077L107.749 62.8968L114.549 61.376C114.621 61.3599 114.694 61.3519 114.767 61.3519H120.797H126.17H132.502H138.714C138.794 61.3519 138.873 61.3614 138.951 61.3804L145.166 62.8968L149.963 64.6349L154.222 66.6848C154.324 66.7341 154.417 66.8004 154.497 66.881L158.912 71.324C158.958 71.3707 159 71.4218 159.036 71.4766L160.517 73.7116L161.86 76.4153L163.587 80.2778L165.697 84.5265V89.1614V94.3757V101.866C165.697 102.139 165.586 102.4 165.388 102.589L161.975 105.853C161.899 105.926 161.834 106.01 161.784 106.104L160.635 108.252C160.557 108.398 160.517 108.56 160.517 108.724V113.124C160.517 113.242 160.537 113.358 160.578 113.468L161.799 116.804C161.839 116.915 161.86 117.031 161.86 117.148V122.394C161.86 122.511 161.839 122.628 161.799 122.738L160.555 126.137C160.529 126.206 160.497 126.272 160.457 126.334L158.565 129.277C158.461 129.438 158.406 129.626 158.406 129.818V131.069V132C158.406 132.552 157.958 133 157.406 133H145.166V130.051C145.166 129.721 145.329 129.412 145.601 129.226L149.528 126.539C149.8 126.352 149.963 126.043 149.963 125.713V120.254V113.839C149.963 113.503 149.795 113.19 149.515 113.005L142.672 108.474L139.615 103.552C139.242 102.95 138.378 102.917 137.959 103.489L136.248 105.826C136.181 105.917 136.1 105.995 136.008 106.059L132.579 108.421C132.528 108.456 132.473 108.486 132.416 108.511L127.705 110.598L123.532 113.154C123.375 113.251 123.194 113.302 123.01 113.302H118.686H114.657H110.244H105.206C105.111 113.302 105.016 113.288 104.925 113.261L100.458 111.95L96.2811 110.969C95.5563 110.799 94.9063 111.452 95.0802 112.176L98.8948 128.057C98.9132 128.133 98.9225 128.212 98.9225 128.29V131.069V132C98.9225 132.552 98.4748 133 97.9225 133H87.6012C86.8785 133 86.3945 132.257 86.6864 131.596L87.4635 129.836C87.5529 129.634 87.7071 129.467 87.9018 129.361L89.3189 128.593C89.7627 128.353 89.9576 127.819 89.7735 127.349L84.7232 114.46L82.1917 118.464C82.0906 118.624 82.0369 118.809 82.0369 118.999V122.571V126.241V131.069V132C82.0369 132.552 81.5892 133 81.0369 133H69.0295C68.4772 133 68.0295 132.552 68.0295 132V130.254C68.0295 129.819 68.3105 129.434 68.7245 129.301L71.5559 128.395C71.97 128.262 72.2509 127.877 72.2509 127.442V122.571L73.2861 110.937C73.3446 110.28 72.7623 109.747 72.1132 109.864L68.1173 110.582C68.0589 110.593 67.9997 110.598 67.9404 110.598H66.2964C66.0531 110.598 65.8181 110.687 65.6355 110.847L64.6671 111.7C64.4845 111.861 64.2495 111.95 64.0062 111.95H59.8593Z"/>
<path d="M145.601 129.226C145.329 129.412 145.166 129.721 145.166 130.051V133H139.834C139.282 133 138.834 132.552 138.834 132V129.984C138.834 129.692 138.962 129.414 139.184 129.224L142.322 126.54C142.544 126.35 142.672 126.072 142.672 125.78V122.571V118.709V114.46V108.474L149.515 113.005C149.795 113.19 149.963 113.503 149.963 113.839V120.254V125.713C149.963 126.043 149.8 126.352 149.528 126.539L145.601 129.226Z"/>
</mask>
<path d="M59.8593 111.95C59.4608 111.95 59.1004 112.186 58.9419 112.552L54.6655 122.415C54.6207 122.519 54.5587 122.614 54.4821 122.696L49.5 128.082C49.4449 128.142 49.3826 128.194 49.3147 128.239L45.2535 130.905C45.0905 131.012 44.8998 131.069 44.7048 131.069H39.0553H35.2704C34.9921 131.069 34.7264 130.953 34.5372 130.749L32.1476 128.172L30.2897 126.302C30.2492 126.261 30.2052 126.224 30.1583 126.191L25.1093 122.615C25.0685 122.586 25.0255 122.56 24.9808 122.538L20.5512 120.308C20.4792 120.272 20.4118 120.227 20.3506 120.175L16.6934 117.046C16.6348 116.996 16.5821 116.939 16.5366 116.877L13.9941 113.404C13.9441 113.336 13.903 113.262 13.8717 113.183L12.0707 108.651C12.024 108.534 12 108.409 12 108.282V108.096C12 107.145 13.2029 106.731 13.7882 107.481L16.0317 110.355C16.1553 110.513 16.3237 110.631 16.515 110.692L20.4428 111.95L24.91 113.261C25.0015 113.288 25.0964 113.302 25.1917 113.302H28.644C29.3792 113.302 29.8631 112.535 29.5466 111.871L27.9262 108.474L27.704 108.11C27.2319 107.338 27.9464 106.386 28.8196 106.624L33.0673 107.779C33.3372 107.852 33.6255 107.809 33.8622 107.661L36.3161 106.117C36.476 106.016 36.6042 105.872 36.6857 105.702L38.9574 100.953C39.0219 100.819 39.0553 100.671 39.0553 100.522V96.1138V92.7812C39.0553 92.5627 38.9838 92.3502 38.8516 92.1763L36.7646 89.4296C36.6324 89.2556 36.5609 89.0431 36.5609 88.8246V86.5653C36.5609 85.7342 37.5159 85.2658 38.1731 85.7746L38.785 86.2484C38.9603 86.3841 39.1756 86.4577 39.3972 86.4577H40.9576C41.2146 86.4577 41.4617 86.3587 41.6477 86.1814L44.8527 83.1254C44.9523 83.0305 45.0312 82.916 45.0845 82.7892L47.1144 77.9603L49.3391 73.8553C49.3907 73.7602 49.4573 73.674 49.5365 73.6002L54.5978 68.8836L59.1365 64.6962C59.1807 64.6554 59.2285 64.6187 59.2793 64.5865L64.2382 61.4441C64.3345 61.3831 64.4406 61.3389 64.5518 61.3137L70.2227 60.0249C70.2954 60.0083 70.3697 60 70.4443 60H76.4723H81.8736C81.9818 60 82.0892 60.0175 82.1917 60.0519L85.8939 61.294C86.008 61.3322 86.1142 61.3908 86.2075 61.4668L89.8201 64.4102C89.9985 64.5555 90.2216 64.6349 90.4517 64.6349H94.7011H100.34C100.418 64.6349 100.496 64.6258 100.572 64.6077L107.749 62.8968L114.549 61.376C114.621 61.3599 114.694 61.3519 114.767 61.3519H120.797H126.17H132.502H138.714C138.794 61.3519 138.873 61.3614 138.951 61.3804L145.166 62.8968L149.963 64.6349L154.222 66.6848C154.324 66.7341 154.417 66.8004 154.497 66.881L158.912 71.324C158.958 71.3707 159 71.4218 159.036 71.4766L160.517 73.7116L161.86 76.4153L163.587 80.2778L165.697 84.5265V89.1614V94.3757V101.866C165.697 102.139 165.586 102.4 165.388 102.589L161.975 105.853C161.899 105.926 161.834 106.01 161.784 106.104L160.635 108.252C160.557 108.398 160.517 108.56 160.517 108.724V113.124C160.517 113.242 160.537 113.358 160.578 113.468L161.799 116.804C161.839 116.915 161.86 117.031 161.86 117.148V122.394C161.86 122.511 161.839 122.628 161.799 122.738L160.555 126.137C160.529 126.206 160.497 126.272 160.457 126.334L158.565 129.277C158.461 129.438 158.406 129.626 158.406 129.818V131.069V132C158.406 132.552 157.958 133 157.406 133H145.166V130.051C145.166 129.721 145.329 129.412 145.601 129.226L149.528 126.539C149.8 126.352 149.963 126.043 149.963 125.713V120.254V113.839C149.963 113.503 149.795 113.19 149.515 113.005L142.672 108.474L139.615 103.552C139.242 102.95 138.378 102.917 137.959 103.489L136.248 105.826C136.181 105.917 136.1 105.995 136.008 106.059L132.579 108.421C132.528 108.456 132.473 108.486 132.416 108.511L127.705 110.598L123.532 113.154C123.375 113.251 123.194 113.302 123.01 113.302H118.686H114.657H110.244H105.206C105.111 113.302 105.016 113.288 104.925 113.261L100.458 111.95L96.2811 110.969C95.5563 110.799 94.9063 111.452 95.0802 112.176L98.8948 128.057C98.9132 128.133 98.9225 128.212 98.9225 128.29V131.069V132C98.9225 132.552 98.4748 133 97.9225 133H87.6012C86.8785 133 86.3945 132.257 86.6864 131.596L87.4635 129.836C87.5529 129.634 87.7071 129.467 87.9018 129.361L89.3189 128.593C89.7627 128.353 89.9576 127.819 89.7735 127.349L84.7232 114.46L82.1917 118.464C82.0906 118.624 82.0369 118.809 82.0369 118.999V122.571V126.241V131.069V132C82.0369 132.552 81.5892 133 81.0369 133H69.0295C68.4772 133 68.0295 132.552 68.0295 132V130.254C68.0295 129.819 68.3105 129.434 68.7245 129.301L71.5559 128.395C71.97 128.262 72.2509 127.877 72.2509 127.442V122.571L73.2861 110.937C73.3446 110.28 72.7623 109.747 72.1132 109.864L68.1173 110.582C68.0589 110.593 67.9997 110.598 67.9404 110.598H66.2964C66.0531 110.598 65.8181 110.687 65.6355 110.847L64.6671 111.7C64.4845 111.861 64.2495 111.95 64.0062 111.95H59.8593Z" fill="black"/>
<path d="M145.601 129.226C145.329 129.412 145.166 129.721 145.166 130.051V133H139.834C139.282 133 138.834 132.552 138.834 132V129.984C138.834 129.692 138.962 129.414 139.184 129.224L142.322 126.54C142.544 126.35 142.672 126.072 142.672 125.78V122.571V118.709V114.46V108.474L149.515 113.005C149.795 113.19 149.963 113.503 149.963 113.839V120.254V125.713C149.963 126.043 149.8 126.352 149.528 126.539L145.601 129.226Z" fill="black"/>
<path d="M164.802 84.9714C164.556 84.4768 164.758 83.8766 165.253 83.6309C165.747 83.3852 166.347 83.5869 166.593 84.0815L165.697 84.5265L164.802 84.9714ZM146.166 133C146.166 133.552 145.718 134 145.166 134C144.614 134 144.166 133.552 144.166 133H145.166H146.166ZM142.119 109.307C141.659 109.002 141.533 108.382 141.838 107.921C142.143 107.461 142.763 107.335 143.224 107.64L142.672 108.474L142.119 109.307ZM85.7232 114.46C85.7232 115.013 85.2755 115.46 84.7232 115.46C84.171 115.46 83.7232 115.013 83.7232 114.46H84.7232H85.7232ZM83.7232 108.474C83.7232 107.921 84.171 107.474 84.7232 107.474C85.2755 107.474 85.7232 107.921 85.7232 108.474H84.7232H83.7232ZM169 111.95C169 112.502 168.552 112.95 168 112.95C167.448 112.95 167 112.502 167 111.95H168H169ZM149.515 113.005L150.067 112.171L149.515 113.005ZM149.528 126.539L148.963 125.713L149.528 126.539ZM145.601 129.226L146.166 130.051L145.601 129.226ZM167.896 88.9512L168.791 88.5063L167.896 88.9512ZM145.166 133H144.166V130.051H145.166H146.166V133H145.166ZM145.601 129.226L145.036 128.401L148.963 125.713L149.528 126.539L150.093 127.364L146.166 130.051L145.601 129.226ZM149.963 125.713H148.963V120.254H149.963H150.963V125.713H149.963ZM149.963 120.254H148.963V113.839H149.963H150.963V120.254H149.963ZM149.515 113.005L148.963 113.839L142.119 109.307L142.672 108.474L143.224 107.64L150.067 112.171L149.515 113.005ZM84.7232 114.46H83.7232V108.474H84.7232H85.7232V114.46H84.7232ZM168 111.95H167V98.8175H168H169V111.95H168ZM168 98.8175H167V89.3961H168H169V98.8175H168ZM167.896 88.9512L167 89.3961L164.802 84.9714L165.697 84.5265L166.593 84.0815L168.791 88.5063L167.896 88.9512ZM149.963 113.839H148.963V113.839L149.515 113.005L150.067 112.171C150.627 112.542 150.963 113.168 150.963 113.839H149.963ZM149.528 126.539L148.963 125.713V125.713H149.963H150.963C150.963 126.373 150.637 126.991 150.093 127.364L149.528 126.539ZM145.166 130.051H144.166C144.166 129.391 144.492 128.774 145.036 128.401L145.601 129.226L146.166 130.051V130.051H145.166ZM168 89.3961H167V89.3961L167.896 88.9512L168.791 88.5063C168.929 88.7828 169 89.0873 169 89.3961H168ZM32.1476 128.172L33.5664 126.762L33.5907 126.787L33.6141 126.812L32.1476 128.172ZM20.4428 111.95L19.8795 113.869L19.8561 113.862L19.8328 113.854L20.4428 111.95ZM27.9262 108.474L29.6325 107.43L29.6867 107.519L29.7314 107.613L27.9262 108.474ZM47.1144 77.9603L45.2707 77.1853L45.3089 77.0942L45.356 77.0074L47.1144 77.9603ZM54.5978 68.8836L53.2342 67.4204L53.2416 67.4136L54.5978 68.8836ZM107.749 62.8968L107.285 60.9513L107.299 60.9481L107.313 60.945L107.749 62.8968ZM145.166 62.8968L145.64 60.9538L145.745 60.9795L145.847 61.0164L145.166 62.8968ZM149.963 64.6349L150.644 62.7545L150.739 62.789L150.831 62.8328L149.963 64.6349ZM160.517 73.7116L162.184 72.6072L162.253 72.7107L162.308 72.8218L160.517 73.7116ZM161.86 76.4153L163.651 75.5255L163.669 75.5619L163.686 75.599L161.86 76.4153ZM163.587 80.2778L161.796 81.1676L161.777 81.1312L161.761 81.0941L163.587 80.2778ZM165.697 84.5265L167.489 83.6366L167.697 84.057V84.5265H165.697ZM142.672 108.474L144.371 107.418L144.672 107.903V108.474H142.672ZM127.705 110.598L126.66 108.892L126.773 108.823L126.895 108.769L127.705 110.598ZM100.458 111.95L100.915 110.003L100.968 110.015L101.021 110.031L100.458 111.95ZM84.7232 114.46L83.0328 113.391L85.1441 110.052L86.5854 113.731L84.7232 114.46ZM72.2509 122.571H70.2509V122.483L70.2588 122.394L72.2509 122.571ZM65.6355 110.847L64.3137 109.346L65.6355 110.847ZM73.2861 110.937L75.2783 111.114L73.2861 110.937ZM72.1132 109.864L72.467 111.832L72.1132 109.864ZM82.1917 118.464L83.8821 119.533L82.1917 118.464ZM89.3189 128.593L90.2718 130.351L89.3189 128.593ZM89.7735 127.349L87.9113 128.079L89.7735 127.349ZM87.4635 129.836L85.6339 129.028L87.4635 129.836ZM87.9018 129.361L88.8547 131.119L87.9018 129.361ZM86.6864 131.596L84.8568 130.788L86.6864 131.596ZM98.8949 128.057L96.9502 128.524L98.8949 128.057ZM96.2812 110.969L96.7384 109.022L96.2812 110.969ZM95.0802 112.176L97.0249 111.709L95.0802 112.176ZM104.925 113.261L104.361 115.18L104.925 113.261ZM123.532 113.154L124.577 114.86L123.532 113.154ZM132.579 108.421L133.713 110.068L132.579 108.421ZM132.416 108.511L131.607 106.683L132.416 108.511ZM136.248 105.826L137.861 107.008L136.248 105.826ZM139.615 103.552L141.314 102.497L139.615 103.552ZM137.959 103.489L136.345 102.307L137.959 103.489ZM158.565 129.277L156.882 128.195L158.565 129.277ZM161.799 116.804L163.677 116.117L161.799 116.804ZM158.912 71.324L160.331 69.9144L158.912 71.324ZM114.549 61.376L114.112 59.4242L114.549 61.376ZM100.572 64.6077L100.108 62.6622L100.572 64.6077ZM89.8201 64.4102L91.0834 62.8597L89.8201 64.4102ZM85.8939 61.294L86.53 59.3978L85.8939 61.294ZM86.2075 61.4668L87.4708 59.9163L86.2075 61.4668ZM82.1917 60.0519L81.5556 61.9481L82.1917 60.0519ZM70.2227 60.0249L69.7795 58.0746L70.2227 60.0249ZM64.2382 61.4441L65.3087 63.1335L64.2382 61.4441ZM64.5518 61.3137L64.9951 63.2639L64.5518 61.3137ZM59.1365 64.6962L60.4927 66.1662L59.1365 64.6962ZM59.2793 64.5865L60.3499 66.2759L59.2793 64.5865ZM49.3391 73.8553L47.5807 72.9024L49.3391 73.8553ZM49.5365 73.6002L50.9 75.0634L49.5365 73.6002ZM44.8527 83.1254L46.2329 84.5729L44.8527 83.1254ZM45.0845 82.7892L46.9282 83.5642L45.0845 82.7892ZM41.6477 86.1814L40.2675 84.7339L41.6477 86.1814ZM38.785 86.2484L40.0094 84.667L38.785 86.2484ZM38.9574 100.953L37.1533 100.09L38.9574 100.953ZM36.3161 106.117L35.2512 104.424L36.3161 106.117ZM36.6857 105.702L34.8815 104.839L36.6857 105.702ZM33.0673 107.779L32.5423 109.709L33.0673 107.779ZM33.8622 107.661L34.9272 109.353L33.8622 107.661ZM27.704 108.11L25.9977 109.153L27.704 108.11ZM28.8196 106.624L28.2947 108.553L28.8196 106.624ZM160.555 126.137L158.677 125.449L160.555 126.137ZM160.457 126.334L162.139 127.415L160.457 126.334ZM29.5466 111.871L27.7413 112.732L29.5466 111.871ZM161.799 122.738L163.677 123.425L161.799 122.738ZM24.91 113.261L24.3467 115.18L24.91 113.261ZM160.578 113.468L158.699 114.156L160.578 113.468ZM16.0317 110.355L14.4552 111.586L16.0317 110.355ZM16.515 110.692L15.905 112.597L16.515 110.692ZM160.635 108.252L158.871 107.309L160.635 108.252ZM139.184 129.224L140.484 130.744L139.184 129.224ZM13.7882 107.481L12.2117 108.712L13.7882 107.481ZM16.6934 117.046L15.3932 118.566L16.6934 117.046ZM16.5366 116.877L14.9228 118.059L16.5366 116.877ZM20.5512 120.308L21.4502 118.522L20.5512 120.308ZM20.3506 120.175L19.0505 121.695L20.3506 120.175ZM25.1093 122.615L23.9533 124.247L25.1093 122.615ZM24.9808 122.538L25.8799 120.751L24.9808 122.538ZM64.6671 111.7L65.9889 113.201L64.6671 111.7ZM30.2897 126.302L31.7084 124.892L30.2897 126.302ZM30.1583 126.191L29.0023 127.823L30.1583 126.191ZM38.1731 85.7746L39.3974 84.1932L38.1731 85.7746ZM154.222 66.6848L155.089 64.8827L154.222 66.6848ZM154.497 66.881L155.916 65.4714L154.497 66.881ZM45.2535 130.905L44.1561 129.233L45.2535 130.905ZM36.7646 89.4296L35.1722 90.6395L36.7646 89.4296ZM71.5559 128.395L72.1659 130.299L71.5559 128.395ZM49.5 128.082L48.0319 126.724L49.5 128.082ZM49.3147 128.239L50.4122 129.911L49.3147 128.239ZM161.975 105.853L160.593 104.407L161.975 105.853ZM161.784 106.104L160.021 105.16L161.784 106.104ZM142.322 126.54L141.022 125.02L142.322 126.54ZM12.0707 108.651L13.9293 107.913L12.0707 108.651ZM38.8516 92.1763L40.4441 90.9663L38.8516 92.1763ZM68.7245 129.301L68.1146 127.397L68.7245 129.301ZM54.6655 122.415L52.8306 121.62L54.6655 122.415ZM54.4821 122.696L55.9503 124.055L54.4821 122.696ZM68.1173 110.582L68.471 112.551L68.1173 110.582ZM34.5372 130.749L33.0707 132.109L34.5372 130.749ZM165.388 102.589L166.771 104.035L165.388 102.589ZM13.9941 113.404L12.3804 114.586L13.9941 113.404ZM13.8717 113.183L15.7303 112.444L13.8717 113.183ZM138.951 61.3804L139.425 59.4373L138.951 61.3804ZM58.9418 112.552L60.7768 113.348L58.9418 112.552ZM58.9418 112.552L60.7768 113.348L56.5005 123.211L54.6655 122.415L52.8306 121.62L57.1069 111.756L58.9418 112.552ZM54.4821 122.696L55.9503 124.055L50.9682 129.44L49.5 128.082L48.0319 126.724L53.014 121.338L54.4821 122.696ZM49.3147 128.239L50.4122 129.911L46.351 132.577L45.2535 130.905L44.1561 129.233L48.2172 126.567L49.3147 128.239ZM44.7048 131.069V133.069H39.0553V131.069V129.069H44.7048V131.069ZM39.0553 131.069V133.069H35.2704V131.069V129.069H39.0553V131.069ZM34.5372 130.749L33.0707 132.109L30.6811 129.532L32.1476 128.172L33.6141 126.812L36.0036 129.389L34.5372 130.749ZM32.1476 128.172L30.7288 129.582L28.8709 127.712L30.2897 126.302L31.7084 124.892L33.5664 126.762L32.1476 128.172ZM30.1583 126.191L29.0023 127.823L23.9533 124.247L25.1093 122.615L26.2652 120.983L31.3142 124.559L30.1583 126.191ZM24.9808 122.538L24.0818 124.324L19.6521 122.095L20.5512 120.308L21.4502 118.522L25.8799 120.751L24.9808 122.538ZM20.3506 120.175L19.0505 121.695L15.3932 118.566L16.6934 117.046L17.9935 115.527L21.6508 118.655L20.3506 120.175ZM16.5366 116.877L14.9228 118.059L12.3804 114.586L13.9941 113.404L15.6079 112.223L18.1503 115.696L16.5366 116.877ZM13.8717 113.183L12.0131 113.922L10.2121 109.39L12.0707 108.651L13.9293 107.913L15.7303 112.444L13.8717 113.183ZM12 108.282H10V108.096H12H14V108.282H12ZM13.7882 107.481L15.3647 106.25L17.6082 109.124L16.0317 110.355L14.4552 111.586L12.2117 108.712L13.7882 107.481ZM16.515 110.692L17.1249 108.787L21.0528 110.045L20.4428 111.95L19.8328 113.854L15.905 112.597L16.515 110.692ZM20.4428 111.95L21.0061 110.031L25.4734 111.342L24.91 113.261L24.3467 115.18L19.8795 113.869L20.4428 111.95ZM25.1917 113.302V111.302H28.644V113.302V115.302H25.1917V113.302ZM29.5466 111.871L27.7413 112.732L26.121 109.334L27.9262 108.474L29.7314 107.613L31.3518 111.01L29.5466 111.871ZM27.9262 108.474L26.2199 109.517L25.9977 109.153L27.704 108.11L29.4103 107.067L29.6325 107.43L27.9262 108.474ZM28.8196 106.624L29.3446 104.694L33.5923 105.849L33.0673 107.779L32.5423 109.709L28.2947 108.553L28.8196 106.624ZM33.8622 107.661L32.7973 105.968L35.2512 104.424L36.3161 106.117L37.381 107.81L34.9272 109.353L33.8622 107.661ZM36.6857 105.702L34.8815 104.839L37.1533 100.09L38.9574 100.953L40.7616 101.816L38.4899 106.565L36.6857 105.702ZM39.0553 100.522H37.0553V96.1138H39.0553H41.0553V100.522H39.0553ZM39.0553 96.1138H37.0553V92.7812H39.0553H41.0553V96.1138H39.0553ZM38.8516 92.1763L37.2591 93.3862L35.1722 90.6395L36.7646 89.4296L38.3571 88.2196L40.4441 90.9663L38.8516 92.1763ZM36.5609 88.8246H34.5609V86.5653H36.5609H38.5609V88.8246H36.5609ZM38.1731 85.7746L39.3974 84.1932L40.0094 84.667L38.785 86.2484L37.5607 87.8298L36.9487 87.356L38.1731 85.7746ZM39.3972 86.4577V84.4577H40.9576V86.4577V88.4577H39.3972V86.4577ZM41.6477 86.1814L40.2675 84.7339L43.4726 81.6779L44.8527 83.1254L46.2329 84.5729L43.0278 87.6289L41.6477 86.1814ZM45.0845 82.7892L43.2408 82.0142L45.2707 77.1853L47.1144 77.9603L48.9581 78.7353L46.9282 83.5642L45.0845 82.7892ZM47.1144 77.9603L45.356 77.0074L47.5807 72.9024L49.3391 73.8553L51.0975 74.8083L48.8728 78.9133L47.1144 77.9603ZM49.5365 73.6002L48.173 72.1371L53.2343 67.4204L54.5978 68.8836L55.9613 70.3467L50.9 75.0634L49.5365 73.6002ZM54.5978 68.8836L53.2416 67.4136L57.7803 63.2263L59.1365 64.6962L60.4927 66.1662L55.954 70.3536L54.5978 68.8836ZM59.2793 64.5865L58.2088 62.8972L63.1676 59.7547L64.2382 61.4441L65.3087 63.1335L60.3499 66.2759L59.2793 64.5865ZM64.5518 61.3137L64.1086 59.3634L69.7795 58.0746L70.2227 60.0249L70.6659 61.9751L64.9951 63.2639L64.5518 61.3137ZM70.4443 60V58H76.4723V60V62H70.4443V60ZM76.4723 60V58H81.8736V60V62H76.4723V60ZM82.1917 60.0519L82.8278 58.1558L86.53 59.3978L85.8939 61.294L85.2578 63.1901L81.5556 61.9481L82.1917 60.0519ZM86.2075 61.4668L87.4708 59.9163L91.0834 62.8597L89.8201 64.4102L88.5568 65.9607L84.9442 63.0173L86.2075 61.4668ZM90.4517 64.6349V62.6349H94.7011V64.6349V66.6349H90.4517V64.6349ZM94.7011 64.6349V62.6349H100.34V64.6349V66.6349H94.7011V64.6349ZM100.572 64.6077L100.108 62.6622L107.285 60.9513L107.749 62.8968L108.213 64.8423L101.036 66.5532L100.572 64.6077ZM107.749 62.8968L107.313 60.945L114.112 59.4242L114.549 61.376L114.986 63.3277L108.186 64.8486L107.749 62.8968ZM114.767 61.3519V59.3519H120.797V61.3519V63.3519H114.767V61.3519ZM120.797 61.3519V59.3519H126.17V61.3519V63.3519H120.797V61.3519ZM126.17 61.3519V59.3519H132.502V61.3519V63.3519H126.17V61.3519ZM132.502 61.3519V59.3519H138.714V61.3519V63.3519H132.502V61.3519ZM138.951 61.3804L139.425 59.4373L145.64 60.9538L145.166 62.8968L144.692 64.8398L138.477 63.3234L138.951 61.3804ZM145.166 62.8968L145.847 61.0164L150.644 62.7545L149.963 64.6349L149.282 66.5153L144.485 64.7772L145.166 62.8968ZM149.963 64.6349L150.831 62.8328L155.089 64.8827L154.222 66.6848L153.354 68.4869L149.096 66.437L149.963 64.6349ZM154.497 66.881L155.916 65.4714L160.331 69.9144L158.912 71.324L157.493 72.7337L153.079 68.2907L154.497 66.881ZM159.036 71.4766L160.704 70.3722L162.184 72.6072L160.517 73.7116L158.849 74.8161L157.369 72.5811L159.036 71.4766ZM160.517 73.7116L162.308 72.8218L163.651 75.5255L161.86 76.4153L160.069 77.3052L158.725 74.6015L160.517 73.7116ZM161.86 76.4153L163.686 75.599L165.413 79.4614L163.587 80.2778L161.761 81.0941L160.034 77.2317L161.86 76.4153ZM163.587 80.2778L165.378 79.388L167.489 83.6366L165.697 84.5265L163.906 85.4163L161.796 81.1676L163.587 80.2778ZM165.697 84.5265H167.697V89.1614H165.697H163.697V84.5265H165.697ZM165.697 89.1614H167.697V94.3757H165.697H163.697V89.1614H165.697ZM165.697 94.3757H167.697V101.866H165.697H163.697V94.3757H165.697ZM165.388 102.589L166.771 104.035L163.357 107.298L161.975 105.853L160.593 104.407L164.006 101.143L165.388 102.589ZM161.784 106.104L163.548 107.047L162.398 109.196L160.635 108.252L158.871 107.309L160.021 105.16L161.784 106.104ZM160.517 108.724H162.517V113.124H160.517H158.517V108.724H160.517ZM160.578 113.468L162.456 112.781L163.677 116.117L161.799 116.804L159.921 117.492L158.699 114.156L160.578 113.468ZM161.86 117.148H163.86V122.394H161.86H159.86V117.148H161.86ZM161.799 122.738L163.677 123.425L162.433 126.824L160.555 126.137L158.677 125.449L159.921 122.05L161.799 122.738ZM160.457 126.334L162.139 127.415L160.247 130.358L158.565 129.277L156.882 128.195L158.774 125.252L160.457 126.334ZM158.406 129.818H160.406V131.069H158.406H156.406V129.818H158.406ZM158.406 131.069H160.406V132H158.406H156.406V131.069H158.406ZM157.406 133V135H145.166V133V131H157.406V133ZM142.672 108.474L140.973 109.529L137.916 104.607L139.615 103.552L141.314 102.497L144.371 107.418L142.672 108.474ZM137.959 103.489L139.573 104.67L137.861 107.008L136.248 105.826L134.634 104.645L136.345 102.307L137.959 103.489ZM136.008 106.059L137.142 107.706L133.713 110.068L132.579 108.421L131.444 106.773L134.874 104.412L136.008 106.059ZM132.416 108.511L133.226 110.34L128.515 112.427L127.705 110.598L126.895 108.769L131.607 106.683L132.416 108.511ZM127.705 110.598L128.75 112.303L124.577 114.86L123.532 113.154L122.487 111.449L126.66 108.892L127.705 110.598ZM123.01 113.302V115.302H118.686V113.302V111.302H123.01V113.302ZM118.686 113.302V115.302H114.657V113.302V111.302H118.686V113.302ZM114.657 113.302V115.302H110.244V113.302V111.302H114.657V113.302ZM110.244 113.302V115.302H105.206V113.302V111.302H110.244V113.302ZM104.925 113.261L104.361 115.18L99.8942 113.869L100.458 111.95L101.021 110.031L105.488 111.342L104.925 113.261ZM100.458 111.95L100 113.897L95.8239 112.916L96.2812 110.969L96.7384 109.022L100.915 110.003L100.458 111.95ZM95.0802 112.176L97.0249 111.709L100.84 127.59L98.8949 128.057L96.9502 128.524L93.1355 112.643L95.0802 112.176ZM98.9225 128.29H100.923V131.069H98.9225H96.9225V128.29H98.9225ZM98.9225 131.069H100.923V132H98.9225H96.9225V131.069H98.9225ZM97.9225 133V135H87.6012V133V131H97.9225V133ZM86.6864 131.596L84.8568 130.788L85.6339 129.028L87.4635 129.836L89.293 130.644L88.5159 132.404L86.6864 131.596ZM87.9018 129.361L86.9489 127.603L88.366 126.835L89.3189 128.593L90.2718 130.351L88.8547 131.119L87.9018 129.361ZM89.7735 127.349L87.9113 128.079L82.8611 115.19L84.7232 114.46L86.5854 113.731L91.6356 126.619L89.7735 127.349ZM84.7232 114.46L86.4137 115.529L83.8821 119.533L82.1917 118.464L80.5012 117.395L83.0328 113.391L84.7232 114.46ZM82.0369 118.999H84.0369V122.571H82.0369H80.0369V118.999H82.0369ZM82.0369 122.571H84.0369V126.241H82.0369H80.0369V122.571H82.0369ZM82.0369 126.241H84.0369V131.069H82.0369H80.0369V126.241H82.0369ZM82.0369 131.069H84.0369V132H82.0369H80.0369V131.069H82.0369ZM81.0369 133V135H69.0295V133V131H81.0369V133ZM68.0295 132H66.0295V130.254H68.0295H70.0295V132H68.0295ZM68.7245 129.301L68.1146 127.397L70.9459 126.49L71.5559 128.395L72.1659 130.299L69.3345 131.206L68.7245 129.301ZM72.2509 127.442H70.2509V122.571H72.2509H74.2509V127.442H72.2509ZM72.2509 122.571L70.2588 122.394L71.294 110.76L73.2861 110.937L75.2783 111.114L74.243 122.749L72.2509 122.571ZM72.1132 109.864L72.467 111.832L68.471 112.551L68.1173 110.582L67.7635 108.614L71.7594 107.895L72.1132 109.864ZM67.9404 110.598V112.598H66.2964V110.598V108.598H67.9404V110.598ZM65.6355 110.847L66.9573 112.348L65.9889 113.201L64.6671 111.7L63.3453 110.199L64.3137 109.346L65.6355 110.847ZM64.0062 111.95V113.95H59.8593V111.95V109.95H64.0062V111.95ZM142.672 108.474H144.672V114.46H142.672H140.672V108.474H142.672ZM142.672 114.46H144.672V118.709H142.672H140.672V114.46H142.672ZM142.672 118.709H144.672V122.571H142.672H140.672V118.709H142.672ZM142.672 122.571H144.672V125.78H142.672H140.672V122.571H142.672ZM142.322 126.54L143.622 128.06L140.484 130.744L139.184 129.224L137.884 127.705L141.022 125.02L142.322 126.54ZM138.834 129.984H140.834V132H138.834H136.834V129.984H138.834ZM139.834 133V131H145.166V133V135H139.834V133ZM66.2964 110.598V112.598C66.5397 112.598 66.7747 112.509 66.9573 112.348L65.6355 110.847L64.3137 109.346C64.8615 108.864 65.5664 108.598 66.2964 108.598V110.598ZM73.2861 110.937L71.294 110.76C71.2356 111.416 71.8179 111.949 72.467 111.832L72.1132 109.864L71.7594 107.895C73.7067 107.546 75.4536 109.143 75.2783 111.114L73.2861 110.937ZM82.0369 132H84.0369C84.0369 133.657 82.6937 135 81.0369 135V133V131C80.4846 131 80.0369 131.448 80.0369 132H82.0369ZM82.1917 118.464L83.8821 119.533C83.9832 119.373 84.0369 119.188 84.0369 118.999H82.0369H80.0369C80.0369 118.431 80.1979 117.875 80.5012 117.395L82.1917 118.464ZM89.3189 128.593L88.366 126.835C87.9222 127.075 87.7272 127.609 87.9113 128.079L89.7735 127.349L91.6356 126.619C92.1881 128.029 91.6032 129.63 90.2718 130.351L89.3189 128.593ZM87.4635 129.836L85.6339 129.028C85.9023 128.421 86.3648 127.919 86.9489 127.603L87.9018 129.361L88.8547 131.119C89.0494 131.014 89.2036 130.847 89.293 130.644L87.4635 129.836ZM87.6012 133V135C85.4333 135 83.9811 132.771 84.8568 130.788L86.6864 131.596L88.5159 132.404C88.8079 131.743 88.3238 131 87.6012 131V133ZM98.9225 132H100.923C100.923 133.657 99.5794 135 97.9225 135V133V131C97.3702 131 96.9225 131.448 96.9225 132H98.9225ZM98.8949 128.057L100.84 127.59C100.895 127.819 100.923 128.054 100.923 128.29H98.9225H96.9225C96.9225 128.369 96.9318 128.447 96.9502 128.524L98.8949 128.057ZM96.2812 110.969L95.8239 112.916C96.5488 113.086 97.1988 112.433 97.0249 111.709L95.0802 112.176L93.1355 112.643C92.6138 110.471 94.5638 108.511 96.7384 109.022L96.2812 110.969ZM105.206 113.302V115.302C104.92 115.302 104.636 115.261 104.361 115.18L104.925 113.261L105.488 111.342C105.397 111.315 105.302 111.302 105.206 111.302V113.302ZM123.532 113.154L124.577 114.86C124.105 115.149 123.563 115.302 123.01 115.302V113.302V111.302C122.825 111.302 122.644 111.353 122.487 111.449L123.532 113.154ZM132.579 108.421L133.713 110.068C133.56 110.173 133.397 110.265 133.226 110.34L132.416 108.511L131.607 106.683C131.55 106.708 131.496 106.738 131.444 106.773L132.579 108.421ZM136.248 105.826L137.861 107.008C137.663 107.279 137.42 107.515 137.142 107.706L136.008 106.059L134.874 104.412C134.781 104.476 134.7 104.554 134.634 104.645L136.248 105.826ZM139.615 103.552L137.916 104.607C138.29 105.209 139.154 105.242 139.573 104.67L137.959 103.489L136.345 102.307C137.601 100.592 140.193 100.691 141.314 102.497L139.615 103.552ZM158.565 129.277L160.247 130.358C160.351 130.197 160.406 130.009 160.406 129.818H158.406H156.406C156.406 129.242 156.571 128.679 156.882 128.195L158.565 129.277ZM161.799 116.804L163.677 116.117C163.798 116.447 163.86 116.796 163.86 117.148H161.86H159.86C159.86 117.265 159.88 117.382 159.921 117.492L161.799 116.804ZM158.912 71.324L160.331 69.9144C160.47 70.0543 160.595 70.2077 160.704 70.3722L159.036 71.4766L157.369 72.5811C157.405 72.6359 157.447 72.687 157.493 72.7337L158.912 71.324ZM114.549 61.376L114.112 59.4242C114.327 59.3761 114.547 59.3519 114.767 59.3519V61.3519V63.3519C114.841 63.3519 114.914 63.3438 114.986 63.3277L114.549 61.376ZM100.34 64.6349V62.6349C100.262 62.6349 100.184 62.6441 100.108 62.6622L100.572 64.6077L101.036 66.5532C100.808 66.6075 100.574 66.6349 100.34 66.6349V64.6349ZM89.8201 64.4102L91.0834 62.8597C90.905 62.7143 90.6819 62.6349 90.4517 62.6349V64.6349V66.6349C89.7613 66.6349 89.0921 66.3968 88.5568 65.9607L89.8201 64.4102ZM85.8939 61.294L86.53 59.3978C86.8723 59.5126 87.1909 59.6883 87.4708 59.9163L86.2075 61.4668L84.9442 63.0173C85.0375 63.0933 85.1437 63.1518 85.2578 63.1901L85.8939 61.294ZM81.8736 60V58C82.198 58 82.5203 58.0526 82.8278 58.1558L82.1917 60.0519L81.5556 61.9481C81.6581 61.9825 81.7655 62 81.8736 62V60ZM70.2227 60.0249L69.7795 58.0746C69.9976 58.025 70.2206 58 70.4443 58V60V62C70.5189 62 70.5932 61.9917 70.6659 61.9751L70.2227 60.0249ZM64.2382 61.4441L63.1676 59.7547C63.4567 59.5716 63.7749 59.4392 64.1086 59.3634L64.5518 61.3137L64.9951 63.2639C65.1063 63.2386 65.2124 63.1945 65.3087 63.1335L64.2382 61.4441ZM59.1365 64.6962L57.7803 63.2263C57.913 63.1039 58.0564 62.9938 58.2088 62.8972L59.2793 64.5865L60.3499 66.2759C60.4007 66.2437 60.4485 66.207 60.4927 66.1662L59.1365 64.6962ZM49.3391 73.8553L47.5807 72.9024C47.7354 72.6169 47.9355 72.3584 48.173 72.1371L49.5365 73.6002L50.9 75.0634C50.9792 74.9896 51.0459 74.9034 51.0975 74.8083L49.3391 73.8553ZM44.8527 83.1254L43.4726 81.6779C43.373 81.7729 43.2941 81.8873 43.2408 82.0142L45.0845 82.7892L46.9282 83.5642C46.7683 83.9447 46.5316 84.2881 46.2329 84.5729L44.8527 83.1254ZM40.9576 86.4577V84.4577C40.7006 84.4577 40.4535 84.5566 40.2675 84.7339L41.6477 86.1814L43.0278 87.6289C42.4699 88.1609 41.7285 88.4577 40.9576 88.4577V86.4577ZM38.785 86.2484L40.0094 84.667C39.8342 84.5313 39.6188 84.4577 39.3972 84.4577V86.4577V88.4577C38.7324 88.4577 38.0864 88.2368 37.5607 87.8298L38.785 86.2484ZM38.9574 100.953L37.1533 100.09C37.0888 100.225 37.0553 100.372 37.0553 100.522H39.0553H41.0553C41.0553 100.97 40.955 101.412 40.7616 101.816L38.9574 100.953ZM36.3161 106.117L35.2512 104.424C35.0912 104.525 34.9631 104.669 34.8815 104.839L36.6857 105.702L38.4899 106.565C38.2453 107.076 37.8608 107.508 37.381 107.81L36.3161 106.117ZM158.406 132H160.406C160.406 133.657 159.063 135 157.406 135V133V131C156.854 131 156.406 131.448 156.406 132H158.406ZM33.0673 107.779L33.5923 105.849C33.3224 105.776 33.0341 105.819 32.7973 105.968L33.8622 107.661L34.9272 109.353C34.2169 109.8 33.352 109.929 32.5423 109.709L33.0673 107.779ZM27.704 108.11L25.9977 109.153C24.5815 106.837 26.7249 103.981 29.3446 104.694L28.8196 106.624L28.2947 108.553C29.1679 108.791 29.8824 107.839 29.4103 107.067L27.704 108.11ZM160.555 126.137L162.433 126.824C162.357 127.032 162.258 127.23 162.139 127.415L160.457 126.334L158.774 125.252C158.735 125.314 158.702 125.38 158.677 125.449L160.555 126.137ZM28.644 113.302V111.302C27.9087 111.302 27.4249 112.068 27.7413 112.732L29.5466 111.871L31.3518 111.01C32.3013 113.001 30.8497 115.302 28.644 115.302V113.302ZM161.86 122.394H163.86C163.86 122.746 163.798 123.095 163.677 123.425L161.799 122.738L159.921 122.05C159.88 122.161 159.86 122.277 159.86 122.394H161.86ZM24.91 113.261L25.4734 111.342C25.3819 111.315 25.287 111.302 25.1917 111.302V113.302V115.302C24.9057 115.302 24.6211 115.261 24.3467 115.18L24.91 113.261ZM160.517 113.124H162.517C162.517 113.007 162.496 112.891 162.456 112.781L160.578 113.468L158.699 114.156C158.578 113.825 158.517 113.476 158.517 113.124H160.517ZM138.834 132H140.834C140.834 131.448 140.386 131 139.834 131V133V135C138.177 135 136.834 133.657 136.834 132H138.834ZM16.0317 110.355L17.6082 109.124C17.4846 108.966 17.3162 108.848 17.1249 108.787L16.515 110.692L15.905 112.597C15.3312 112.413 14.826 112.061 14.4552 111.586L16.0317 110.355ZM160.635 108.252L162.398 109.196C162.476 109.051 162.517 108.889 162.517 108.724H160.517H158.517C158.517 108.23 158.638 107.744 158.871 107.309L160.635 108.252ZM139.184 129.224L140.484 130.744C140.706 130.554 140.834 130.277 140.834 129.984H138.834H136.834C136.834 129.108 137.218 128.275 137.884 127.705L139.184 129.224ZM12 108.096H10C10 105.243 13.6086 104.001 15.3647 106.25L13.7882 107.481L12.2117 108.712C12.7971 109.462 14 109.048 14 108.096H12ZM16.6934 117.046L15.3932 118.566C15.2174 118.416 15.0595 118.245 14.9228 118.059L16.5366 116.877L18.1503 115.696C18.1048 115.634 18.0521 115.577 17.9935 115.527L16.6934 117.046ZM20.5512 120.308L19.6521 122.095C19.4362 121.986 19.2342 121.852 19.0505 121.695L20.3506 120.175L21.6508 118.655C21.5895 118.603 21.5222 118.558 21.4502 118.522L20.5512 120.308ZM25.1093 122.615L23.9533 124.247C23.9942 124.276 24.0371 124.302 24.0818 124.324L24.9808 122.538L25.8799 120.751C26.0139 120.819 26.1428 120.896 26.2652 120.983L25.1093 122.615ZM64.6671 111.7L65.9889 113.201C65.4411 113.684 64.7362 113.95 64.0062 113.95V111.95V109.95C63.7629 109.95 63.5279 110.038 63.3453 110.199L64.6671 111.7ZM30.2897 126.302L28.8709 127.712C28.9114 127.752 28.9554 127.79 29.0023 127.823L30.1583 126.191L31.3142 124.559C31.455 124.658 31.5869 124.77 31.7084 124.892L30.2897 126.302ZM36.5609 86.5653H34.5609C34.5609 84.072 37.4259 82.6668 39.3974 84.1932L38.1731 85.7746L36.9487 87.356C37.6059 87.8648 38.5609 87.3964 38.5609 86.5653H36.5609ZM154.222 66.6848L155.089 64.8827C155.396 65.0305 155.676 65.2296 155.916 65.4714L154.497 66.881L153.079 68.2907C153.159 68.3713 153.252 68.4376 153.354 68.4869L154.222 66.6848ZM45.2535 130.905L46.351 132.577C45.862 132.898 45.2898 133.069 44.7048 133.069V131.069V129.069C44.5098 129.069 44.3191 129.126 44.1561 129.233L45.2535 130.905ZM36.7646 89.4296L35.1722 90.6395C34.7756 90.1176 34.5609 89.4801 34.5609 88.8246H36.5609H38.5609C38.5609 88.6061 38.4893 88.3936 38.3571 88.2196L36.7646 89.4296ZM71.5559 128.395L70.9459 126.49C70.5319 126.622 70.2509 127.007 70.2509 127.442H72.2509H74.2509C74.2509 128.747 73.4081 129.901 72.1659 130.299L71.5559 128.395ZM49.5 128.082L50.9682 129.44C50.8027 129.619 50.616 129.777 50.4122 129.911L49.3147 128.239L48.2172 126.567C48.1493 126.612 48.0871 126.664 48.0319 126.724L49.5 128.082ZM161.975 105.853L163.357 107.298C163.434 107.225 163.498 107.14 163.548 107.047L161.784 106.104L160.021 105.16C160.171 104.881 160.364 104.626 160.593 104.407L161.975 105.853ZM142.672 125.78H144.672C144.672 126.657 144.288 127.49 143.622 128.06L142.322 126.54L141.022 125.02C140.799 125.21 140.672 125.488 140.672 125.78H142.672ZM12.0707 108.651L10.2121 109.39C10.072 109.038 10 108.662 10 108.282H12H14C14 108.156 13.976 108.03 13.9293 107.913L12.0707 108.651ZM39.0553 92.7812H37.0553C37.0553 92.9998 37.1269 93.2122 37.2591 93.3862L38.8516 92.1763L40.4441 90.9663C40.8406 91.4883 41.0553 92.1257 41.0553 92.7812H39.0553ZM68.0295 130.254H66.0295C66.0295 128.949 66.8723 127.794 68.1146 127.397L68.7245 129.301L69.3345 131.206C69.7486 131.073 70.0295 130.688 70.0295 130.254H68.0295ZM54.6655 122.415L56.5005 123.211C56.366 123.521 56.1799 123.806 55.9503 124.055L54.4821 122.696L53.014 121.338C52.9374 121.421 52.8754 121.516 52.8306 121.62L54.6655 122.415ZM68.1173 110.582L68.471 112.551C68.2959 112.582 68.1183 112.598 67.9404 112.598V110.598V108.598C67.8811 108.598 67.8219 108.603 67.7635 108.614L68.1173 110.582ZM35.2704 131.069V133.069C34.4355 133.069 33.6384 132.721 33.0707 132.109L34.5372 130.749L36.0036 129.389C35.8144 129.185 35.5487 129.069 35.2704 129.069V131.069ZM165.697 101.866H167.697C167.697 102.685 167.363 103.469 166.771 104.035L165.388 102.589L164.006 101.143C163.809 101.332 163.697 101.593 163.697 101.866H165.697ZM13.9941 113.404L12.3804 114.586C12.2303 114.381 12.1069 114.158 12.0131 113.922L13.8717 113.183L15.7303 112.444C15.699 112.366 15.6579 112.291 15.6079 112.223L13.9941 113.404ZM138.714 61.3519V59.3519C138.953 59.3519 139.192 59.3806 139.425 59.4373L138.951 61.3804L138.477 63.3234C138.554 63.3423 138.634 63.3519 138.714 63.3519V61.3519ZM69.0295 133V135C67.3727 135 66.0295 133.657 66.0295 132H68.0295H70.0295C70.0295 131.448 69.5818 131 69.0295 131V133ZM58.9418 112.552L57.1069 111.756C57.5824 110.66 58.6638 109.95 59.8593 109.95V111.95V113.95C60.2578 113.95 60.6183 113.713 60.7768 113.348L58.9418 112.552Z" fill="black" mask="url(#path-5-outside-1_12_2)"/>
</svg>
