<svg width="612" height="612" viewBox="0 0 612 612" fill="none" xmlns="http://www.w3.org/2000/svg">
<mask id="path-1-outside-1_2_21" maskUnits="userSpaceOnUse" x="96.5" y="225" width="416" height="201" fill="black">
<rect fill="white" x="96.5" y="225" width="416" height="201"/>
<path d="M226.655 365.5C226.257 365.5 225.897 365.736 225.738 366.1L214.068 392.843C214.023 392.947 213.961 393.042 213.884 393.125L200.583 407.411C200.528 407.47 200.466 407.522 200.398 407.567L189.249 414.838C189.087 414.944 188.897 415 188.703 415H173.5H162.935C162.657 415 162.393 414.885 162.203 414.682L155.5 407.5L150.561 402.561C150.52 402.52 150.476 402.483 150.429 402.45L137.061 393.043C137.02 393.014 136.978 392.989 136.933 392.966L125.108 387.054C125.036 387.018 124.969 386.974 124.908 386.922L115.089 378.575C115.03 378.525 114.977 378.469 114.931 378.406L108.076 369.103C108.026 369.035 107.984 368.96 107.952 368.881L103.072 356.679C103.024 356.561 103 356.435 103 356.307V350.891C103 349.942 104.2 349.527 104.786 350.273L113.81 361.758C113.934 361.916 114.102 362.032 114.293 362.093L125 365.5L136.863 368.96C136.954 368.987 137.048 369 137.143 369H148.911C149.647 369 150.131 368.231 149.812 367.567L144.5 356.5L141.821 352.147C141.347 351.376 142.06 350.422 142.934 350.658L158.579 354.886C158.847 354.959 159.134 354.916 159.37 354.769L166.755 350.153C166.915 350.053 167.044 349.91 167.126 349.739L173.401 336.706C173.466 336.57 173.5 336.422 173.5 336.272V324.5V315.339C173.5 315.119 173.428 314.905 173.294 314.731L167.206 306.769C167.072 306.595 167 306.381 167 306.161V296.531C167 295.701 167.952 295.232 168.61 295.738L173.23 299.293C173.405 299.427 173.62 299.5 173.84 299.5H179.102C179.357 299.5 179.604 299.402 179.789 299.226L188.848 290.644C188.948 290.549 189.028 290.434 189.081 290.307L194.5 277.5L200.422 266.644C200.474 266.549 200.541 266.462 200.62 266.389L214 254L225.933 243.061C225.978 243.02 226.026 242.984 226.076 242.952L239.355 234.591C239.451 234.531 239.557 234.487 239.667 234.462L254.891 231.025C254.964 231.008 255.037 231 255.111 231H271H285.338C285.445 231 285.552 231.017 285.654 231.051L295.828 234.443C295.942 234.481 296.048 234.539 296.141 234.614L306.225 242.777C306.403 242.921 306.625 243 306.854 243H318.5H333.383C333.461 243 333.538 242.991 333.614 242.973L352.5 238.5L370.393 234.524C370.464 234.508 370.537 234.5 370.61 234.5H386.5H400.5H417H433.381C433.46 234.5 433.539 234.509 433.616 234.528L450 238.5L462.5 243L473.845 248.426C473.948 248.475 474.041 248.541 474.121 248.621L485.93 260.43C485.977 260.477 486.018 260.528 486.055 260.582L490 266.5L493.5 273.5L498 283.5L503.5 294.5V306.5V320V340.071C503.5 340.345 503.387 340.607 503.189 340.796L493.616 349.89C493.539 349.963 493.474 350.048 493.424 350.141L490.12 356.278C490.041 356.424 490 356.587 490 356.752V368.822C490 368.94 490.021 369.057 490.062 369.167L493.438 378.333C493.479 378.443 493.5 378.56 493.5 378.678V392.822C493.5 392.94 493.479 393.057 493.438 393.167L490.038 402.396C490.013 402.465 489.98 402.531 489.94 402.593L484.66 410.752C484.556 410.914 484.5 411.103 484.5 411.295V415V419C484.5 419.552 484.052 420 483.5 420H450V411.529C450 411.198 450.164 410.889 450.438 410.702L462.062 402.798C462.336 402.611 462.5 402.302 462.5 401.971V387V369.539C462.5 369.203 462.331 368.889 462.05 368.704L443.5 356.5L434.28 341.748C433.906 341.149 433.046 341.116 432.627 341.685L426.601 349.864C426.534 349.954 426.453 350.032 426.36 350.096L417.077 356.447C417.026 356.482 416.971 356.513 416.915 356.537L404.5 362L393.24 368.854C393.083 368.95 392.903 369 392.72 369H381H370.5H359H345.643C345.548 369 345.454 368.987 345.363 368.96L333.5 365.5L320.081 362.369C319.356 362.2 318.706 362.854 318.881 363.578L329.472 407.384C329.491 407.461 329.5 407.54 329.5 407.619V415V419C329.5 419.552 329.052 420 328.5 420H297.539C296.815 420 296.331 419.255 296.625 418.594L299.861 411.312C299.951 411.11 300.106 410.943 300.301 410.838L305.718 407.921C306.164 407.681 306.36 407.145 306.174 406.674L292.5 372L285.656 382.754C285.554 382.915 285.5 383.101 285.5 383.291V393V402.5V415V419C285.5 419.552 285.052 420 284.5 420H250C249.448 420 249 419.552 249 419V411.731C249 411.296 249.282 410.91 249.697 410.778L259.303 407.722C259.718 407.59 260 407.204 260 406.769V393L262.883 360.804C262.942 360.147 262.36 359.614 261.711 359.73L249.087 361.984C249.029 361.995 248.97 362 248.911 362H243.876C243.634 362 243.4 362.088 243.217 362.247L239.783 365.253C239.6 365.412 239.366 365.5 239.124 365.5H226.655Z"/>
<path d="M450.438 410.702C450.164 410.889 450 411.198 450 411.529V420H434.5C433.948 420 433.5 419.552 433.5 419V411.462C433.5 411.169 433.629 410.891 433.852 410.701L443.148 402.799C443.371 402.609 443.5 402.331 443.5 402.038V393V383V372V356.5L462.05 368.704C462.331 368.889 462.5 369.203 462.5 369.539V387V401.971C462.5 402.302 462.336 402.611 462.062 402.798L450.438 410.702Z"/>
</mask>
<path d="M226.655 365.5C226.257 365.5 225.897 365.736 225.738 366.1L214.068 392.843C214.023 392.947 213.961 393.042 213.884 393.125L200.583 407.411C200.528 407.47 200.466 407.522 200.398 407.567L189.249 414.838C189.087 414.944 188.897 415 188.703 415H173.5H162.935C162.657 415 162.393 414.885 162.203 414.682L155.5 407.5L150.561 402.561C150.52 402.52 150.476 402.483 150.429 402.45L137.061 393.043C137.02 393.014 136.978 392.989 136.933 392.966L125.108 387.054C125.036 387.018 124.969 386.974 124.908 386.922L115.089 378.575C115.03 378.525 114.977 378.469 114.931 378.406L108.076 369.103C108.026 369.035 107.984 368.96 107.952 368.881L103.072 356.679C103.024 356.561 103 356.435 103 356.307V350.891C103 349.942 104.2 349.527 104.786 350.273L113.81 361.758C113.934 361.916 114.102 362.032 114.293 362.093L125 365.5L136.863 368.96C136.954 368.987 137.048 369 137.143 369H148.911C149.647 369 150.131 368.231 149.812 367.567L144.5 356.5L141.821 352.147C141.347 351.376 142.06 350.422 142.934 350.658L158.579 354.886C158.847 354.959 159.134 354.916 159.37 354.769L166.755 350.153C166.915 350.053 167.044 349.91 167.126 349.739L173.401 336.706C173.466 336.57 173.5 336.422 173.5 336.272V324.5V315.339C173.5 315.119 173.428 314.905 173.294 314.731L167.206 306.769C167.072 306.595 167 306.381 167 306.161V296.531C167 295.701 167.952 295.232 168.61 295.738L173.23 299.293C173.405 299.427 173.62 299.5 173.84 299.5H179.102C179.357 299.5 179.604 299.402 179.789 299.226L188.848 290.644C188.948 290.549 189.028 290.434 189.081 290.307L194.5 277.5L200.422 266.644C200.474 266.549 200.541 266.462 200.62 266.389L214 254L225.933 243.061C225.978 243.02 226.026 242.984 226.076 242.952L239.355 234.591C239.451 234.531 239.557 234.487 239.667 234.462L254.891 231.025C254.964 231.008 255.037 231 255.111 231H271H285.338C285.445 231 285.552 231.017 285.654 231.051L295.828 234.443C295.942 234.481 296.048 234.539 296.141 234.614L306.225 242.777C306.403 242.921 306.625 243 306.854 243H318.5H333.383C333.461 243 333.538 242.991 333.614 242.973L352.5 238.5L370.393 234.524C370.464 234.508 370.537 234.5 370.61 234.5H386.5H400.5H417H433.381C433.46 234.5 433.539 234.509 433.616 234.528L450 238.5L462.5 243L473.845 248.426C473.948 248.475 474.041 248.541 474.121 248.621L485.93 260.43C485.977 260.477 486.018 260.528 486.055 260.582L490 266.5L493.5 273.5L498 283.5L503.5 294.5V306.5V320V340.071C503.5 340.345 503.387 340.607 503.189 340.796L493.616 349.89C493.539 349.963 493.474 350.048 493.424 350.141L490.12 356.278C490.041 356.424 490 356.587 490 356.752V368.822C490 368.94 490.021 369.057 490.062 369.167L493.438 378.333C493.479 378.443 493.5 378.56 493.5 378.678V392.822C493.5 392.94 493.479 393.057 493.438 393.167L490.038 402.396C490.013 402.465 489.98 402.531 489.94 402.593L484.66 410.752C484.556 410.914 484.5 411.103 484.5 411.295V415V419C484.5 419.552 484.052 420 483.5 420H450V411.529C450 411.198 450.164 410.889 450.438 410.702L462.062 402.798C462.336 402.611 462.5 402.302 462.5 401.971V387V369.539C462.5 369.203 462.331 368.889 462.05 368.704L443.5 356.5L434.28 341.748C433.906 341.149 433.046 341.116 432.627 341.685L426.601 349.864C426.534 349.954 426.453 350.032 426.36 350.096L417.077 356.447C417.026 356.482 416.971 356.513 416.915 356.537L404.5 362L393.24 368.854C393.083 368.95 392.903 369 392.72 369H381H370.5H359H345.643C345.548 369 345.454 368.987 345.363 368.96L333.5 365.5L320.081 362.369C319.356 362.2 318.706 362.854 318.881 363.578L329.472 407.384C329.491 407.461 329.5 407.54 329.5 407.619V415V419C329.5 419.552 329.052 420 328.5 420H297.539C296.815 420 296.331 419.255 296.625 418.594L299.861 411.312C299.951 411.11 300.106 410.943 300.301 410.838L305.718 407.921C306.164 407.681 306.36 407.145 306.174 406.674L292.5 372L285.656 382.754C285.554 382.915 285.5 383.101 285.5 383.291V393V402.5V415V419C285.5 419.552 285.052 420 284.5 420H250C249.448 420 249 419.552 249 419V411.731C249 411.296 249.282 410.91 249.697 410.778L259.303 407.722C259.718 407.59 260 407.204 260 406.769V393L262.883 360.804C262.942 360.147 262.36 359.614 261.711 359.73L249.087 361.984C249.029 361.995 248.97 362 248.911 362H243.876C243.634 362 243.4 362.088 243.217 362.247L239.783 365.253C239.6 365.412 239.366 365.5 239.124 365.5H226.655Z" fill="black"/>
<path d="M450.438 410.702C450.164 410.889 450 411.198 450 411.529V420H434.5C433.948 420 433.5 419.552 433.5 419V411.462C433.5 411.169 433.629 410.891 433.852 410.701L443.148 402.799C443.371 402.609 443.5 402.331 443.5 402.038V393V383V372V356.5L462.05 368.704C462.331 368.889 462.5 369.203 462.5 369.539V387V401.971C462.5 402.302 462.336 402.611 462.062 402.798L450.438 410.702Z" fill="black"/>
<path d="M500.817 295.842C500.076 294.36 500.676 292.558 502.158 291.817C503.64 291.076 505.442 291.676 506.183 293.158L503.5 294.5L500.817 295.842ZM453 420C453 421.657 451.657 423 450 423C448.343 423 447 421.657 447 420H450H453ZM441.851 359.006C440.467 358.096 440.083 356.235 440.994 354.851C441.904 353.467 443.765 353.083 445.149 353.994L443.5 356.5L441.851 359.006ZM295.5 372C295.5 373.657 294.157 375 292.5 375C290.843 375 289.5 373.657 289.5 372H292.5H295.5ZM289.5 356.5C289.5 354.843 290.843 353.5 292.5 353.5C294.157 353.5 295.5 354.843 295.5 356.5H292.5H289.5ZM512.5 365.5C512.5 367.157 511.157 368.5 509.5 368.5C507.843 368.5 506.5 367.157 506.5 365.5H509.5H512.5ZM462.05 368.704L460.401 371.21L462.05 368.704ZM462.062 402.798L463.749 405.278L462.062 402.798ZM450.438 410.702L448.751 408.222L450.438 410.702ZM509.394 306.289L506.711 307.63L509.394 306.289ZM450 420H447V411.529H450H453V420H450ZM450.438 410.702L448.751 408.222L460.375 400.317L462.062 402.798L463.749 405.278L452.125 413.183L450.438 410.702ZM462.5 401.971H459.5V387H462.5H465.5V401.971H462.5ZM462.5 387H459.5V369.539H462.5H465.5V387H462.5ZM462.05 368.704L460.401 371.21L441.851 359.006L443.5 356.5L445.149 353.994L463.698 366.197L462.05 368.704ZM292.5 372H289.5V356.5H292.5H295.5V372H292.5ZM509.5 365.5H506.5V331.5H509.5H512.5V365.5H509.5ZM509.5 331.5H506.5V306.736H509.5H512.5V331.5H509.5ZM509.394 306.289L506.711 307.63L500.817 295.842L503.5 294.5L506.183 293.158L512.078 304.947L509.394 306.289ZM462.5 369.539H459.5C459.5 370.212 459.839 370.84 460.401 371.21L462.05 368.704L463.698 366.197C464.823 366.937 465.5 368.193 465.5 369.539H462.5ZM462.062 402.798L460.375 400.317C459.828 400.689 459.5 401.309 459.5 401.971H462.5H465.5C465.5 403.295 464.844 404.534 463.749 405.278L462.062 402.798ZM450 411.529H447C447 410.205 447.656 408.966 448.751 408.222L450.438 410.702L452.125 413.183C452.672 412.811 453 412.192 453 411.529H450ZM509.5 306.736H506.5C506.5 307.047 506.572 307.353 506.711 307.63L509.394 306.289L512.078 304.947C512.355 305.503 512.5 306.115 512.5 306.736H509.5ZM155.5 407.5L159.743 403.257L159.816 403.33L159.886 403.406L155.5 407.5ZM125 365.5L123.32 371.26L123.25 371.24L123.181 371.218L125 365.5ZM144.5 356.5L149.61 353.355L149.774 353.622L149.909 353.904L144.5 356.5ZM194.5 277.5L188.974 275.162L189.09 274.888L189.233 274.627L194.5 277.5ZM214 254L209.924 249.597L209.935 249.587L209.946 249.577L214 254ZM352.5 238.5L351.117 232.662L351.158 232.652L351.198 232.643L352.5 238.5ZM450 238.5L451.414 232.669L451.728 232.745L452.032 232.855L450 238.5ZM462.5 243L464.532 237.355L464.816 237.457L465.089 237.587L462.5 243ZM490 266.5L494.992 263.172L495.2 263.483L495.367 263.817L490 266.5ZM493.5 273.5L498.867 270.817L498.921 270.926L498.972 271.038L493.5 273.5ZM498 283.5L492.633 286.183L492.579 286.074L492.528 285.962L498 283.5ZM503.5 294.5L508.867 291.817L509.5 293.084V294.5H503.5ZM443.5 356.5L448.588 353.32L449.5 354.779V356.5H443.5ZM404.5 362L401.38 356.875L401.72 356.668L402.084 356.508L404.5 362ZM333.5 365.5L334.863 359.657L335.023 359.694L335.18 359.74L333.5 365.5ZM292.5 372L287.438 368.779L293.761 358.843L298.082 369.799L292.5 372ZM260 393H254V392.732L254.024 392.465L260 393ZM243.217 362.247L247.168 366.763L243.217 362.247ZM262.883 360.804L256.907 360.269L262.883 360.804ZM261.711 359.73L260.657 353.824L261.711 359.73ZM285.656 382.754L290.718 385.976L285.656 382.754ZM305.718 407.921L302.873 402.638L305.718 407.921ZM306.174 406.674L300.593 408.875L306.174 406.674ZM299.861 411.312L305.344 413.749L299.861 411.312ZM300.301 410.838L303.146 416.121L300.301 410.838ZM329.472 407.384L323.64 408.794L329.472 407.384ZM345.363 368.96L347.043 363.2L345.363 368.96ZM393.24 368.854L390.12 363.729L393.24 368.854ZM417.077 356.447L420.465 361.399L417.077 356.447ZM416.915 356.537L419.331 362.029L416.915 356.537ZM426.601 349.864L431.431 353.423L426.601 349.864ZM426.36 350.096L422.972 345.144L426.36 350.096ZM434.28 341.748L429.192 344.928L434.28 341.748ZM432.627 341.685L427.797 338.126L432.627 341.685ZM484.66 410.752L479.623 407.493L484.66 410.752ZM493.438 378.333L499.068 376.258L493.438 378.333ZM486.055 260.582L481.063 263.911L486.055 260.582ZM370.393 234.524L371.694 240.381L370.393 234.524ZM333.614 242.973L334.996 248.812L333.614 242.973ZM306.225 242.777L302.45 247.441L306.225 242.777ZM295.828 234.443L293.931 240.135L295.828 234.443ZM296.141 234.614L299.916 229.951L296.141 234.614ZM285.654 231.051L287.551 225.359L285.654 231.051ZM254.891 231.025L256.213 236.877L254.891 231.025ZM239.355 234.591L236.158 229.514L239.355 234.591ZM239.667 234.462L240.989 240.315L239.667 234.462ZM225.933 243.061L229.988 247.484L225.933 243.061ZM226.076 242.952L222.879 237.875L226.076 242.952ZM200.422 266.644L205.689 269.517L200.422 266.644ZM200.62 266.389L204.697 270.791L200.62 266.389ZM188.848 290.644L192.975 294.999L188.848 290.644ZM189.081 290.307L183.556 287.97L189.081 290.307ZM179.789 299.226L183.916 303.582L179.789 299.226ZM173.23 299.293L176.889 294.537L173.23 299.293ZM173.401 336.706L178.807 339.309L173.401 336.706ZM167.126 349.739L161.72 347.136L167.126 349.739ZM158.579 354.886L157.013 360.678L158.579 354.886ZM159.37 354.769L156.19 349.681L159.37 354.769ZM141.821 352.147L136.711 355.292L141.821 352.147ZM142.934 350.658L141.369 356.45L142.934 350.658ZM490.038 402.396L484.408 400.322L490.038 402.396ZM489.94 402.593L494.977 405.853L489.94 402.593ZM149.812 367.567L144.403 370.164L149.812 367.567ZM493.438 393.167L499.068 395.242L493.438 393.167ZM136.863 368.96L138.543 363.2L136.863 368.96ZM490.062 369.167L484.432 371.242L490.062 369.167ZM113.81 361.758L109.092 365.465L113.81 361.758ZM114.293 362.093L116.112 356.376L114.293 362.093ZM490.12 356.278L495.402 359.123L490.12 356.278ZM433.852 410.701L429.966 406.129L433.852 410.701ZM104.786 350.273L109.504 346.567L104.786 350.273ZM115.089 378.575L118.974 374.004L115.089 378.575ZM114.931 378.406L119.761 374.847L114.931 378.406ZM124.908 386.922L121.022 391.493L124.908 386.922ZM137.061 393.043L133.608 397.95L137.061 393.043ZM239.783 365.253L235.832 360.737L239.783 365.253ZM150.561 402.561L146.318 406.804L150.561 402.561ZM150.429 402.45L146.976 407.357L150.429 402.45ZM168.61 295.738L164.951 300.494L168.61 295.738ZM473.845 248.426L471.257 253.839L473.845 248.426ZM474.121 248.621L469.878 252.864L474.121 248.621ZM189.249 414.838L185.971 409.812L189.249 414.838ZM167.206 306.769L162.439 310.414L167.206 306.769ZM259.303 407.722L261.122 413.439L259.303 407.722ZM200.583 407.411L204.975 411.499L200.583 407.411ZM200.398 407.567L203.675 412.592L200.398 407.567ZM493.616 349.89L497.748 354.24L493.616 349.89ZM493.424 350.141L498.707 352.985L493.424 350.141ZM443.148 402.799L447.034 407.371L443.148 402.799ZM103.072 356.679L97.5007 358.907L103.072 356.679ZM173.294 314.731L178.061 311.086L173.294 314.731ZM249.697 410.778L247.878 405.061L249.697 410.778ZM214.068 392.844L219.568 395.243L214.068 392.844ZM213.884 393.125L209.492 389.036L213.884 393.125ZM249.087 361.984L250.142 367.891L249.087 361.984ZM503.189 340.796L507.321 345.146L503.189 340.796ZM108.076 369.103L112.906 365.544L108.076 369.103ZM107.952 368.881L113.523 366.653L107.952 368.881ZM433.616 234.528L432.203 240.359L433.616 234.528ZM225.738 366.1L231.237 368.5L225.738 366.1ZM225.738 366.1L231.237 368.5L219.568 395.243L214.068 392.844L208.569 390.444L220.239 363.7L225.738 366.1ZM213.884 393.125L218.275 397.213L204.975 411.499L200.583 407.411L196.192 403.322L209.492 389.036L213.884 393.125ZM200.398 407.567L203.675 412.592L192.527 419.863L189.249 414.838L185.971 409.812L197.12 402.541L200.398 407.567ZM188.703 415V421H173.5V415V409H188.703V415ZM173.5 415V421H162.935V415V409H173.5V415ZM162.203 414.682L157.817 418.776L151.114 411.594L155.5 407.5L159.886 403.406L166.59 410.588L162.203 414.682ZM155.5 407.5L151.257 411.743L146.318 406.804L150.561 402.561L154.804 398.318L159.743 403.257L155.5 407.5ZM150.429 402.45L146.976 407.357L133.608 397.95L137.061 393.043L140.514 388.136L153.882 397.543L150.429 402.45ZM136.933 392.966L134.25 398.333L122.425 392.421L125.108 387.054L127.792 381.688L139.616 387.6L136.933 392.966ZM124.908 386.922L121.022 391.493L111.203 383.147L115.089 378.575L118.974 374.004L128.794 382.35L124.908 386.922ZM114.931 378.406L110.101 381.966L103.246 372.662L108.076 369.103L112.906 365.544L119.761 374.847L114.931 378.406ZM107.952 368.881L102.382 371.11L97.5007 358.907L103.072 356.679L108.642 354.45L113.523 366.653L107.952 368.881ZM103 356.307H97V350.891H103H109V356.307H103ZM104.786 350.273L109.504 346.567L118.528 358.051L113.81 361.758L109.092 365.465L100.068 353.98L104.786 350.273ZM114.293 362.093L116.112 356.376L126.819 359.782L125 365.5L123.181 371.218L112.474 367.811L114.293 362.093ZM125 365.5L126.68 359.74L138.543 363.2L136.863 368.96L135.183 374.72L123.32 371.26L125 365.5ZM137.143 369V363H148.911V369V375H137.143V369ZM149.812 367.567L144.403 370.164L139.091 359.096L144.5 356.5L149.909 353.904L155.221 364.971L149.812 367.567ZM144.5 356.5L139.39 359.645L136.711 355.292L141.821 352.147L146.931 349.003L149.61 353.355L144.5 356.5ZM142.934 350.658L144.499 344.866L160.144 349.094L158.579 354.886L157.013 360.678L141.369 356.45L142.934 350.658ZM159.37 354.769L156.19 349.681L163.575 345.065L166.755 350.153L169.935 355.241L162.55 359.857L159.37 354.769ZM167.126 349.739L161.72 347.136L167.995 334.103L173.401 336.706L178.807 339.309L172.532 352.342L167.126 349.739ZM173.5 336.272H167.5V324.5H173.5H179.5V336.272H173.5ZM173.5 324.5H167.5V315.339H173.5H179.5V324.5H173.5ZM173.294 314.731L168.528 318.376L162.439 310.414L167.206 306.769L171.972 303.124L178.061 311.086L173.294 314.731ZM167 306.161H161V296.531H167H173V306.161H167ZM168.61 295.738L172.268 290.982L176.889 294.537L173.23 299.293L169.572 304.048L164.951 300.494L168.61 295.738ZM173.84 299.5V293.5H179.102V299.5V305.5H173.84V299.5ZM179.789 299.226L175.663 294.87L184.722 286.288L188.848 290.644L192.975 294.999L183.916 303.582L179.789 299.226ZM189.081 290.307L183.556 287.97L188.974 275.162L194.5 277.5L200.026 279.838L194.607 292.645L189.081 290.307ZM194.5 277.5L189.233 274.627L195.154 263.771L200.422 266.644L205.689 269.517L199.767 280.373L194.5 277.5ZM200.62 266.389L196.544 261.986L209.924 249.597L214 254L218.076 258.403L204.697 270.791L200.62 266.389ZM214 254L209.946 249.577L221.879 238.638L225.933 243.061L229.988 247.484L218.054 258.423L214 254ZM226.076 242.952L222.879 237.875L236.158 229.514L239.355 234.591L242.552 239.669L229.273 248.029L226.076 242.952ZM239.667 234.462L238.346 228.61L253.57 225.172L254.891 231.025L256.213 236.877L240.989 240.315L239.667 234.462ZM255.111 231V225H271V231V237H255.111V231ZM271 231V225H285.338V231V237H271V231ZM285.654 231.051L287.551 225.359L297.725 228.751L295.828 234.443L293.931 240.135L283.757 236.743L285.654 231.051ZM296.141 234.614L299.916 229.951L310 238.114L306.225 242.777L302.45 247.441L292.366 239.278L296.141 234.614ZM306.854 243V237H318.5V243V249H306.854V243ZM318.5 243V237H333.383V243V249H318.5V243ZM333.614 242.973L332.231 237.135L351.117 232.662L352.5 238.5L353.883 244.338L334.996 248.812L333.614 242.973ZM352.5 238.5L351.198 232.643L369.091 228.667L370.393 234.524L371.694 240.381L353.802 244.357L352.5 238.5ZM370.61 234.5V228.5H386.5V234.5V240.5H370.61V234.5ZM386.5 234.5V228.5H400.5V234.5V240.5H386.5V234.5ZM400.5 234.5V228.5H417V234.5V240.5H400.5V234.5ZM417 234.5V228.5H433.381V234.5V240.5H417V234.5ZM433.616 234.528L435.03 228.697L451.414 232.669L450 238.5L448.586 244.331L432.203 240.359L433.616 234.528ZM450 238.5L452.032 232.855L464.532 237.355L462.5 243L460.468 248.645L447.968 244.145L450 238.5ZM462.5 243L465.089 237.587L476.434 243.013L473.845 248.426L471.257 253.839L459.911 248.413L462.5 243ZM474.121 248.621L478.364 244.378L490.173 256.187L485.93 260.43L481.687 264.673L469.878 252.864L474.121 248.621ZM486.055 260.582L491.047 257.254L494.992 263.172L490 266.5L485.008 269.828L481.063 263.911L486.055 260.582ZM490 266.5L495.367 263.817L498.867 270.817L493.5 273.5L488.133 276.183L484.633 269.183L490 266.5ZM493.5 273.5L498.972 271.038L503.472 281.038L498 283.5L492.528 285.962L488.028 275.962L493.5 273.5ZM498 283.5L503.367 280.817L508.867 291.817L503.5 294.5L498.133 297.183L492.633 286.183L498 283.5ZM503.5 294.5H509.5V306.5H503.5H497.5V294.5H503.5ZM503.5 306.5H509.5V320H503.5H497.5V306.5H503.5ZM503.5 320H509.5V340.071H503.5H497.5V320H503.5ZM503.189 340.796L507.321 345.146L497.748 354.24L493.616 349.89L489.483 345.54L499.056 336.446L503.189 340.796ZM493.424 350.141L498.707 352.985L495.402 359.123L490.12 356.278L484.837 353.433L488.141 347.296L493.424 350.141ZM490 356.752H496V368.822H490H484V356.752H490ZM490.062 369.167L495.692 367.093L499.068 376.258L493.438 378.333L487.808 380.407L484.432 371.242L490.062 369.167ZM493.5 378.678H499.5V392.822H493.5H487.5V378.678H493.5ZM493.438 393.167L499.068 395.242L495.668 404.47L490.038 402.396L484.408 400.322L487.808 391.093L493.438 393.167ZM489.94 402.593L494.977 405.853L489.698 414.012L484.66 410.752L479.623 407.493L484.902 399.334L489.94 402.593ZM484.5 411.295H490.5V415H484.5H478.5V411.295H484.5ZM484.5 415H490.5V419H484.5H478.5V415H484.5ZM483.5 420V426H450V420V414H483.5V420ZM443.5 356.5L438.412 359.68L429.192 344.928L434.28 341.748L439.368 338.568L448.588 353.32L443.5 356.5ZM432.627 341.685L437.457 345.244L431.431 353.423L426.601 349.864L421.77 346.304L427.797 338.126L432.627 341.685ZM426.36 350.096L429.748 355.048L420.465 361.399L417.077 356.447L413.689 351.496L422.972 345.144L426.36 350.096ZM416.915 356.537L419.331 362.029L406.916 367.492L404.5 362L402.084 356.508L414.498 351.046L416.915 356.537ZM404.5 362L407.62 367.125L396.359 373.979L393.24 368.854L390.12 363.729L401.38 356.875L404.5 362ZM392.72 369V375H381V369V363H392.72V369ZM381 369V375H370.5V369V363H381V369ZM370.5 369V375H359V369V363H370.5V369ZM359 369V375H345.643V369V363H359V369ZM345.363 368.96L343.683 374.72L331.82 371.26L333.5 365.5L335.18 359.74L347.043 363.2L345.363 368.96ZM333.5 365.5L332.137 371.343L318.717 368.212L320.081 362.369L321.444 356.526L334.863 359.657L333.5 365.5ZM318.881 363.578L324.713 362.168L335.304 405.974L329.472 407.384L323.64 408.794L313.049 364.988L318.881 363.578ZM329.5 407.619H335.5V415H329.5H323.5V407.619H329.5ZM329.5 415H335.5V419H329.5H323.5V415H329.5ZM328.5 420V426H297.539V420V414H328.5V420ZM296.625 418.594L291.142 416.157L294.378 408.875L299.861 411.312L305.344 413.749L302.108 421.031L296.625 418.594ZM300.301 410.838L297.456 405.555L302.873 402.638L305.718 407.921L308.563 413.204L303.146 416.121L300.301 410.838ZM306.174 406.674L300.593 408.875L286.918 374.201L292.5 372L298.082 369.799L311.756 404.473L306.174 406.674ZM292.5 372L297.562 375.221L290.718 385.976L285.656 382.754L280.594 379.533L287.438 368.779L292.5 372ZM285.5 383.291H291.5V393H285.5H279.5V383.291H285.5ZM285.5 393H291.5V402.5H285.5H279.5V393H285.5ZM285.5 402.5H291.5V415H285.5H279.5V402.5H285.5ZM285.5 415H291.5V419H285.5H279.5V415H285.5ZM284.5 420V426H250V420V414H284.5V420ZM249 419H243V411.731H249H255V419H249ZM249.697 410.778L247.878 405.061L257.484 402.004L259.303 407.722L261.122 413.439L251.516 416.496L249.697 410.778ZM260 406.769H254V393H260H266V406.769H260ZM260 393L254.024 392.465L256.907 360.269L262.883 360.804L268.859 361.339L265.976 393.535L260 393ZM261.711 359.73L262.766 365.637L250.142 367.891L249.087 361.984L248.032 356.078L260.657 353.824L261.711 359.73ZM248.911 362V368H243.876V362V356H248.911V362ZM243.217 362.247L247.168 366.763L243.734 369.768L239.783 365.253L235.832 360.737L239.266 357.732L243.217 362.247ZM239.124 365.5V371.5H226.655V365.5V359.5H239.124V365.5ZM443.5 356.5H449.5V372H443.5H437.5V356.5H443.5ZM443.5 372H449.5V383H443.5H437.5V372H443.5ZM443.5 383H449.5V393H443.5H437.5V383H443.5ZM443.5 393H449.5V402.038H443.5H437.5V393H443.5ZM443.148 402.799L447.034 407.371L437.738 415.272L433.852 410.701L429.966 406.129L439.262 398.228L443.148 402.799ZM433.5 411.462H439.5V419H433.5H427.5V411.462H433.5ZM434.5 420V414H450V420V426H434.5V420ZM243.876 362V368C245.087 368 246.257 367.56 247.168 366.763L243.217 362.247L239.266 357.732C240.542 356.615 242.18 356 243.876 356V362ZM262.883 360.804L256.907 360.269C256.613 363.552 259.521 366.216 262.766 365.637L261.711 359.73L260.657 353.824C265.2 353.012 269.271 356.742 268.859 361.339L262.883 360.804ZM285.5 419H291.5C291.5 422.866 288.366 426 284.5 426V420V414C281.739 414 279.5 416.239 279.5 419H285.5ZM285.656 382.754L290.718 385.976C291.229 385.173 291.5 384.242 291.5 383.291H285.5H279.5C279.5 381.96 279.88 380.656 280.594 379.533L285.656 382.754ZM305.718 407.921L302.873 402.638C300.643 403.839 299.663 406.518 300.593 408.875L306.174 406.674L311.756 404.473C313.057 407.772 311.685 411.523 308.563 413.204L305.718 407.921ZM299.861 411.312L294.378 408.875C295.008 407.458 296.091 406.29 297.456 405.555L300.301 410.838L303.146 416.121C304.121 415.596 304.894 414.761 305.344 413.749L299.861 411.312ZM297.539 420V426C292.473 426 289.085 420.786 291.142 416.157L296.625 418.594L302.108 421.031C303.577 417.724 301.157 414 297.539 414V420ZM329.5 419H335.5C335.5 422.866 332.366 426 328.5 426V420V414C325.739 414 323.5 416.239 323.5 419H329.5ZM329.472 407.384L335.304 405.974C335.434 406.513 335.5 407.065 335.5 407.619H329.5H323.5C323.5 408.015 323.547 408.409 323.64 408.794L329.472 407.384ZM320.081 362.369L318.717 368.212C322.343 369.058 325.588 365.786 324.713 362.168L318.881 363.578L313.049 364.988C311.825 359.921 316.368 355.341 321.444 356.526L320.081 362.369ZM345.643 369V375C344.98 375 344.32 374.906 343.683 374.72L345.363 368.96L347.043 363.2C346.588 363.067 346.117 363 345.643 363V369ZM393.24 368.854L396.359 373.979C395.263 374.647 394.003 375 392.72 375V369V363C391.803 363 390.903 363.252 390.12 363.729L393.24 368.854ZM417.077 356.447L420.465 361.399C420.107 361.644 419.728 361.855 419.331 362.029L416.915 356.537L414.498 351.046C414.215 351.17 413.944 351.321 413.689 351.496L417.077 356.447ZM426.601 349.864L431.431 353.423C430.965 354.055 430.396 354.604 429.748 355.048L426.36 350.096L422.972 345.144C422.509 345.461 422.103 345.853 421.77 346.304L426.601 349.864ZM434.28 341.748L429.192 344.928C431.063 347.922 435.363 348.086 437.457 345.244L432.627 341.685L427.797 338.126C430.728 334.147 436.749 334.377 439.368 338.568L434.28 341.748ZM484.66 410.752L489.698 414.012C490.221 413.202 490.5 412.259 490.5 411.295H484.5H478.5C478.5 409.946 478.89 408.625 479.623 407.493L484.66 410.752ZM493.438 378.333L499.068 376.258C499.354 377.033 499.5 377.853 499.5 378.678H493.5H487.5C487.5 379.268 487.604 379.853 487.808 380.407L493.438 378.333ZM485.93 260.43L490.173 256.187C490.499 256.513 490.792 256.871 491.047 257.254L486.055 260.582L481.063 263.911C481.245 264.185 481.455 264.44 481.687 264.673L485.93 260.43ZM370.393 234.524L369.091 228.667C369.59 228.556 370.099 228.5 370.61 228.5V234.5V240.5C370.975 240.5 371.338 240.46 371.694 240.381L370.393 234.524ZM333.383 243V237C332.995 237 332.608 237.045 332.231 237.135L333.614 242.973L334.996 248.812C334.468 248.937 333.926 249 333.383 249V243ZM306.225 242.777L310 238.114C309.11 237.393 307.999 237 306.854 237V243V249C305.251 249 303.696 248.45 302.45 247.441L306.225 242.777ZM295.828 234.443L297.725 228.751C298.522 229.016 299.264 229.422 299.916 229.951L296.141 234.614L292.366 239.278C292.832 239.655 293.362 239.945 293.931 240.135L295.828 234.443ZM285.338 231V225C286.09 225 286.838 225.121 287.551 225.359L285.654 231.051L283.757 236.743C284.266 236.913 284.8 237 285.338 237V231ZM254.891 231.025L253.57 225.172C254.076 225.058 254.593 225 255.111 225V231V237C255.482 237 255.851 236.959 256.213 236.877L254.891 231.025ZM239.355 234.591L236.158 229.514C236.831 229.091 237.57 228.785 238.346 228.61L239.667 234.462L240.989 240.315C241.543 240.19 242.071 239.971 242.552 239.669L239.355 234.591ZM225.933 243.061L221.879 238.638C222.189 238.354 222.524 238.098 222.879 237.875L226.076 242.952L229.273 248.029C229.527 247.869 229.766 247.687 229.988 247.484L225.933 243.061ZM200.422 266.644L195.154 263.771C195.518 263.104 195.987 262.502 196.544 261.986L200.62 266.389L204.697 270.791C205.094 270.423 205.429 269.993 205.689 269.517L200.422 266.644ZM188.848 290.644L184.722 286.288C184.221 286.762 183.824 287.335 183.556 287.97L189.081 290.307L194.607 292.645C194.231 293.534 193.675 294.336 192.975 294.999L188.848 290.644ZM179.102 299.5V293.5C177.822 293.5 176.592 293.99 175.663 294.87L179.789 299.226L183.916 303.582C182.616 304.813 180.893 305.5 179.102 305.5V299.5ZM173.23 299.293L176.889 294.537C176.015 293.865 174.943 293.5 173.84 293.5V299.5V305.5C172.296 305.5 170.796 304.99 169.572 304.048L173.23 299.293ZM173.401 336.706L167.995 334.103C167.669 334.779 167.5 335.521 167.5 336.272H173.5H179.5C179.5 337.323 179.263 338.361 178.807 339.309L173.401 336.706ZM166.755 350.153L163.575 345.065C162.773 345.566 162.13 346.285 161.72 347.136L167.126 349.739L172.532 352.342C171.957 353.535 171.057 354.54 169.935 355.241L166.755 350.153ZM484.5 419H490.5C490.5 422.866 487.366 426 483.5 426V420V414C480.739 414 478.5 416.239 478.5 419H484.5ZM158.579 354.886L160.144 349.094C158.802 348.731 157.369 348.944 156.19 349.681L159.37 354.769L162.55 359.857C160.899 360.889 158.893 361.186 157.013 360.678L158.579 354.886ZM141.821 352.147L136.711 355.292C133.389 349.893 138.38 343.212 144.499 344.866L142.934 350.658L141.369 356.45C145.739 357.631 149.304 352.859 146.931 349.003L141.821 352.147ZM490.038 402.396L495.668 404.47C495.49 404.955 495.258 405.419 494.977 405.853L489.94 402.593L484.902 399.334C484.702 399.644 484.536 399.975 484.408 400.322L490.038 402.396ZM148.911 369V363C145.229 363 142.81 366.844 144.403 370.164L149.812 367.567L155.221 364.971C157.452 369.618 154.065 375 148.911 375V369ZM493.5 392.822H499.5C499.5 393.647 499.354 394.467 499.068 395.242L493.438 393.167L487.808 391.093C487.604 391.647 487.5 392.232 487.5 392.822H493.5ZM136.863 368.96L138.543 363.2C138.088 363.067 137.617 363 137.143 363V369V375C136.48 375 135.82 374.906 135.183 374.72L136.863 368.96ZM490 368.822H496C496 368.232 495.896 367.647 495.692 367.093L490.062 369.167L484.432 371.242C484.146 370.467 484 369.647 484 368.822H490ZM433.5 419H439.5C439.5 416.239 437.261 414 434.5 414V420V426C430.634 426 427.5 422.866 427.5 419H433.5ZM113.81 361.758L118.528 358.051C117.909 357.263 117.067 356.68 116.112 356.376L114.293 362.093L112.474 367.811C111.137 367.385 109.959 366.568 109.092 365.465L113.81 361.758ZM490.12 356.278L495.402 359.123C495.795 358.394 496 357.58 496 356.752H490H484C484 355.594 484.287 354.453 484.837 353.433L490.12 356.278ZM433.852 410.701L437.738 415.272C438.856 414.322 439.5 412.929 439.5 411.462H433.5H427.5C427.5 409.409 428.402 407.459 429.966 406.129L433.852 410.701ZM103 350.891H97C97 344.244 105.397 341.339 109.504 346.567L104.786 350.273L100.068 353.98C103.002 357.714 109 355.64 109 350.891H103ZM115.089 378.575L111.203 383.147C110.791 382.797 110.421 382.401 110.101 381.966L114.931 378.406L119.761 374.847C119.533 374.537 119.268 374.254 118.974 374.004L115.089 378.575ZM125.108 387.054L122.425 392.421C121.922 392.169 121.451 391.858 121.022 391.493L124.908 386.922L128.794 382.35C128.487 382.09 128.151 381.867 127.792 381.688L125.108 387.054ZM137.061 393.043L133.608 397.95C133.812 398.093 134.027 398.222 134.25 398.333L136.933 392.966L139.616 387.6C139.929 387.756 140.229 387.935 140.514 388.136L137.061 393.043ZM239.783 365.253L243.734 369.768C242.458 370.885 240.82 371.5 239.124 371.5V365.5V359.5C237.913 359.5 236.743 359.94 235.832 360.737L239.783 365.253ZM150.561 402.561L146.318 406.804C146.521 407.007 146.742 407.192 146.976 407.357L150.429 402.45L153.882 397.543C154.211 397.775 154.519 398.034 154.804 398.318L150.561 402.561ZM167 296.531H161C161 290.723 167.665 287.441 172.268 290.982L168.61 295.738L164.951 300.494C168.24 303.023 173 300.679 173 296.531H167ZM473.845 248.426L476.434 243.013C477.15 243.356 477.803 243.817 478.364 244.378L474.121 248.621L469.878 252.864C470.279 253.265 470.745 253.594 471.257 253.839L473.845 248.426ZM189.249 414.838L192.527 419.863C191.389 420.605 190.061 421 188.703 421V415V409C187.733 409 186.784 409.282 185.971 409.812L189.249 414.838ZM167.206 306.769L162.439 310.414C161.506 309.193 161 307.698 161 306.161H167H173C173 305.064 172.639 303.996 171.972 303.124L167.206 306.769ZM259.303 407.722L257.484 402.004C255.409 402.664 254 404.591 254 406.769H260H266C266 409.817 264.027 412.515 261.122 413.439L259.303 407.722ZM200.583 407.411L204.975 411.499C204.587 411.915 204.151 412.282 203.675 412.592L200.398 407.567L197.12 402.541C196.78 402.763 196.468 403.025 196.192 403.322L200.583 407.411ZM493.616 349.89L497.748 354.24C498.132 353.875 498.456 353.452 498.707 352.985L493.424 350.141L488.141 347.296C488.493 346.643 488.946 346.051 489.483 345.54L493.616 349.89ZM443.5 402.038H449.5C449.5 404.091 448.598 406.041 447.034 407.371L443.148 402.799L439.262 398.228C438.144 399.178 437.5 400.571 437.5 402.038H443.5ZM103.072 356.679L97.5007 358.907C97.1699 358.08 97 357.198 97 356.307H103H109C109 355.671 108.879 355.041 108.642 354.45L103.072 356.679ZM173.5 315.339H167.5C167.5 316.436 167.861 317.504 168.528 318.376L173.294 314.731L178.061 311.086C178.994 312.307 179.5 313.802 179.5 315.339H173.5ZM249 411.731H243C243 408.683 244.973 405.985 247.878 405.061L249.697 410.778L251.516 416.496C253.591 415.836 255 413.909 255 411.731H249ZM214.068 392.844L219.568 395.243C219.251 395.968 218.814 396.634 218.275 397.213L213.884 393.125L209.492 389.036C209.107 389.45 208.795 389.926 208.569 390.444L214.068 392.844ZM249.087 361.984L250.142 367.891C249.736 367.964 249.324 368 248.911 368V362V356C248.617 356 248.323 356.026 248.032 356.078L249.087 361.984ZM162.935 415V421C160.994 421 159.141 420.195 157.817 418.776L162.203 414.682L166.59 410.588C165.644 409.575 164.32 409 162.935 409V415ZM503.5 340.071H509.5C509.5 341.989 508.712 343.824 507.321 345.146L503.189 340.796L499.056 336.446C498.063 337.39 497.5 338.7 497.5 340.071H503.5ZM108.076 369.103L103.246 372.662C102.893 372.183 102.602 371.662 102.382 371.11L107.952 368.881L113.523 366.653C113.366 366.258 113.158 365.886 112.906 365.544L108.076 369.103ZM433.381 234.5V228.5C433.936 228.5 434.49 228.566 435.03 228.697L433.616 234.528L432.203 240.359C432.588 240.453 432.984 240.5 433.381 240.5V234.5ZM250 420V426C246.134 426 243 422.866 243 419H249H255C255 416.239 252.761 414 250 414V420ZM225.738 366.1L220.239 363.7C221.352 361.149 223.871 359.5 226.655 359.5V365.5V371.5C228.643 371.5 230.442 370.322 231.237 368.5L225.738 366.1Z" fill="black" mask="url(#path-1-outside-1_2_21)"/>
</svg>
